 <svg
              className="w-5 h-5"
              fill="currentColor"
              viewBox="0 0 24 24"
              aria-hidden="true"
              xmlns="http://www.w3.org/2000/svg"
            >
              <path d="M12 2a10 10 0 10.19 20.003c-.127-.5-.243-1.27-.051-1.814.263-.765 1.7-5.158 1.7-5.158s-.43-.868-.43-2.147c0-2.011 1.165-3.515 2.615-3.515 1.236 0 1.83.927 1.83 2.04 0 1.244-.794 3.106-1.204 4.837-.343 1.442.729 2.616 2.163 2.616 2.594 0 4.343-3.343 4.343-7.26 0-3.012-2.027-5.155-5.922-5.155-4.322 0-6.998 3.24-6.998 6.596 0 1.345.517 2.792 1.162 3.576.13.155.15.29.11.445-.12.487-.398 1.544-.452 1.761-.07.29-.23.352-.53.213-2.004-.931-3.247-3.844-3.247-6.197 0-5.05 3.675-9.685 10.59-9.685z" />
            </svg>